<?xml version="1.0" standalone="no"?><!DOCTYPE svg PUBLIC "-//W3C//DTD SVG 1.1//EN" "http://www.w3.org/Graphics/SVG/1.1/DTD/svg11.dtd"><svg t="1522825550851" class="icon" style="" viewBox="0 0 1024 1024" version="1.1" xmlns="http://www.w3.org/2000/svg" p-id="3623" xmlns:xlink="http://www.w3.org/1999/xlink" width="200" height="200"><defs><style type="text/css"></style></defs><path d="M809.984 297.984l0-84.010667-425.984 0 0 84.010667 425.984 0zM640 640l0-86.016-256 0 0 86.016 256 0zM809.984 470.016l0-86.016-425.984 0 0 86.016 425.984 0zM854.016 86.016q34.005333 0 59.008 25.002667t25.002667 59.008l0 512q0 34.005333-25.002667 59.989333t-59.008 25.984l-512 0q-34.005333 0-59.989333-25.984t-25.984-59.989333l0-512q0-34.005333 25.984-59.008t59.989333-25.002667l512 0zM169.984 256l0 598.016 598.016 0 0 84.010667-598.016 0q-34.005333 0-59.008-25.002667t-25.002667-59.008l0-598.016 84.010667 0z" p-id="3624"></path></svg>